<svg xmlns="http://www.w3.org/2000/svg" xmlns:xlink="http://www.w3.org/1999/xlink" width="1763" zoomAndPan="magnify" viewBox="0 0 1322.25 398.999991" height="532" preserveAspectRatio="xMidYMid meet" version="1.0"><defs><g/><clipPath id="70dcb4d406"><path d="M 307.992188 145.683594 L 457.160156 145.683594 L 457.160156 294.851562 L 307.992188 294.851562 Z M 307.992188 145.683594 " clip-rule="nonzero"/></clipPath></defs><g fill="#ff3131" fill-opacity="1"><g transform="translate(78.889179, 278.691341)"><g><path d="M 171.875 -123.46875 C 186.8125 -123.46875 198.722656 -118.984375 207.609375 -110.015625 C 216.492188 -101.054688 220.9375 -87.539062 220.9375 -69.46875 L 220.9375 0 L 178.359375 0 L 178.359375 -62.515625 C 178.359375 -71.035156 176.753906 -77.3125 173.546875 -81.34375 C 170.335938 -85.375 165.816406 -87.390625 159.984375 -87.390625 C 153.566406 -87.390625 148.414062 -85.148438 144.53125 -80.671875 C 140.644531 -76.191406 138.703125 -69.394531 138.703125 -60.28125 L 138.703125 0 L 96.125 0 L 96.125 -62.515625 C 96.125 -79.097656 90 -87.390625 77.75 -87.390625 C 71.175781 -87.390625 65.945312 -85.148438 62.0625 -80.671875 C 58.1875 -76.191406 56.25 -69.394531 56.25 -60.28125 L 56.25 0 L 13.671875 0 L 13.671875 -121.453125 L 54.234375 -121.453125 L 54.234375 -108.671875 C 58.710938 -113.609375 64.050781 -117.304688 70.25 -119.765625 C 76.445312 -122.234375 83.207031 -123.46875 90.53125 -123.46875 C 99.039062 -123.46875 106.65625 -121.898438 113.375 -118.765625 C 120.101562 -115.628906 125.554688 -110.847656 129.734375 -104.421875 C 134.515625 -110.546875 140.566406 -115.25 147.890625 -118.53125 C 155.210938 -121.820312 163.207031 -123.46875 171.875 -123.46875 Z M 171.875 -123.46875 "/></g></g></g><g fill="#000000" fill-opacity="1"><g transform="translate(289.297168, 278.691341)"><g/></g></g><g fill="#000000" fill-opacity="1"><g transform="translate(330.749583, 278.691341)"><g/></g></g><g fill="#000000" fill-opacity="1"><g transform="translate(372.201998, 278.691341)"><g/></g></g><g fill="#000000" fill-opacity="1"><g transform="translate(413.654413, 278.691341)"><g/></g></g><g fill="#ffffff" fill-opacity="1"><g transform="translate(455.117168, 278.691341)"><g><path d="M 141.625 -121.453125 L 91.421875 0 L 47.5 0 L -2.46875 -121.453125 L 41.234375 -121.453125 L 70.359375 -47.28125 L 101.0625 -121.453125 Z M 141.625 -121.453125 "/></g></g></g><g fill="#ffffff" fill-opacity="1"><g transform="translate(570.288633, 278.691341)"><g><path d="M 13.671875 -121.453125 L 56.25 -121.453125 L 56.25 0 L 13.671875 0 Z M 34.953125 -134.890625 C 27.179688 -134.890625 20.90625 -137.054688 16.125 -141.390625 C 11.34375 -145.722656 8.953125 -151.101562 8.953125 -157.53125 C 8.953125 -163.945312 11.34375 -169.320312 16.125 -173.65625 C 20.90625 -177.988281 27.179688 -180.15625 34.953125 -180.15625 C 42.710938 -180.15625 48.984375 -178.097656 53.765625 -173.984375 C 58.546875 -169.878906 60.9375 -164.617188 60.9375 -158.203125 C 60.9375 -151.472656 58.546875 -145.90625 53.765625 -141.5 C 48.984375 -137.09375 42.710938 -134.890625 34.953125 -134.890625 Z M 34.953125 -134.890625 "/></g></g></g><g fill="#ffffff" fill-opacity="1"><g transform="translate(616.67061, 278.691341)"><g><path d="M 137.8125 -60.5 C 137.8125 -60.195312 137.585938 -56.6875 137.140625 -49.96875 L 48.84375 -49.96875 C 50.632812 -43.695312 54.109375 -38.878906 59.265625 -35.515625 C 64.421875 -32.148438 70.882812 -30.46875 78.65625 -30.46875 C 84.476562 -30.46875 89.515625 -31.289062 93.765625 -32.9375 C 98.023438 -34.582031 102.320312 -37.269531 106.65625 -41 L 129.0625 -17.703125 C 117.257812 -4.554688 100.007812 2.015625 77.3125 2.015625 C 63.113281 2.015625 50.632812 -0.671875 39.875 -6.046875 C 29.125 -11.421875 20.796875 -18.890625 14.890625 -28.453125 C 8.992188 -38.015625 6.046875 -48.847656 6.046875 -60.953125 C 6.046875 -72.898438 8.921875 -83.613281 14.671875 -93.09375 C 20.421875 -102.582031 28.375 -110.015625 38.53125 -115.390625 C 48.695312 -120.773438 60.128906 -123.46875 72.828125 -123.46875 C 84.921875 -123.46875 95.894531 -120.960938 105.75 -115.953125 C 115.613281 -110.953125 123.421875 -103.707031 129.171875 -94.21875 C 134.929688 -84.738281 137.8125 -73.5 137.8125 -60.5 Z M 73.046875 -93.21875 C 66.472656 -93.21875 60.984375 -91.347656 56.578125 -87.609375 C 52.171875 -83.878906 49.367188 -78.800781 48.171875 -72.375 L 97.921875 -72.375 C 96.722656 -78.800781 93.921875 -83.878906 89.515625 -87.609375 C 85.109375 -91.347656 79.617188 -93.21875 73.046875 -93.21875 Z M 73.046875 -93.21875 "/></g></g></g><g fill="#ffffff" fill-opacity="1"><g transform="translate(736.771637, 278.691341)"><g><path d="M 136.234375 -81.78125 C 145.203125 -78.644531 152.222656 -73.753906 157.296875 -67.109375 C 162.378906 -60.460938 164.921875 -52.429688 164.921875 -43.015625 C 164.921875 -29.273438 159.394531 -18.671875 148.34375 -11.203125 C 137.289062 -3.734375 121.304688 0 100.390625 0 L 15.6875 0 L 15.6875 -156.859375 L 95.90625 -156.859375 C 115.925781 -156.859375 131.160156 -153.160156 141.609375 -145.765625 C 152.066406 -138.367188 157.296875 -128.394531 157.296875 -115.84375 C 157.296875 -108.375 155.46875 -101.6875 151.8125 -95.78125 C 148.15625 -89.882812 142.960938 -85.21875 136.234375 -81.78125 Z M 59.609375 -124.8125 L 59.609375 -94.5625 L 90.078125 -94.5625 C 105.015625 -94.5625 112.484375 -99.640625 112.484375 -109.796875 C 112.484375 -119.804688 105.015625 -124.8125 90.078125 -124.8125 Z M 96.796875 -32.046875 C 112.335938 -32.046875 120.109375 -37.347656 120.109375 -47.953125 C 120.109375 -58.554688 112.335938 -63.859375 96.796875 -63.859375 L 59.609375 -63.859375 L 59.609375 -32.046875 Z M 96.796875 -32.046875 "/></g></g></g><g fill="#ffffff" fill-opacity="1"><g transform="translate(885.329551, 278.691341)"><g><path d="M 141.390625 -121.453125 L 141.390625 0 L 100.828125 0 L 100.828125 -13 C 96.347656 -8.070312 90.972656 -4.335938 84.703125 -1.796875 C 78.429688 0.742188 71.785156 2.015625 64.765625 2.015625 C 49.078125 2.015625 36.5625 -2.613281 27.21875 -11.875 C 17.882812 -21.132812 13.21875 -35.023438 13.21875 -53.546875 L 13.21875 -121.453125 L 55.796875 -121.453125 L 55.796875 -60.5 C 55.796875 -51.382812 57.515625 -44.734375 60.953125 -40.546875 C 64.390625 -36.367188 69.394531 -34.28125 75.96875 -34.28125 C 82.6875 -34.28125 88.171875 -36.632812 92.421875 -41.34375 C 96.679688 -46.050781 98.8125 -53.257812 98.8125 -62.96875 L 98.8125 -121.453125 Z M 141.390625 -121.453125 "/></g></g></g><g fill="#ffffff" fill-opacity="1"><g transform="translate(1016.634023, 278.691341)"><g><path d="M 119.4375 -31.8125 L 119.4375 0 L 7.390625 0 L 7.390625 -25.09375 L 63.640625 -89.859375 L 8.96875 -89.859375 L 8.96875 -121.453125 L 117.1875 -121.453125 L 117.1875 -96.578125 L 60.953125 -31.8125 Z M 119.4375 -31.8125 "/></g></g></g><g fill="#ffffff" fill-opacity="1"><g transform="translate(1117.465009, 278.691341)"><g><path d="M 119.4375 -31.8125 L 119.4375 0 L 7.390625 0 L 7.390625 -25.09375 L 63.640625 -89.859375 L 8.96875 -89.859375 L 8.96875 -121.453125 L 117.1875 -121.453125 L 117.1875 -96.578125 L 60.953125 -31.8125 Z M 119.4375 -31.8125 "/></g></g></g><g clip-path="url(#70dcb4d406)"><path fill="#ffffff" d="M 440.597656 253.769531 C 436.3125 261.183594 427.683594 264.527344 419.785156 262.441406 L 400.460938 281.761719 L 398.109375 284.121094 L 395.757812 281.769531 C 392.398438 285.167969 387.71875 287.273438 382.566406 287.273438 C 372.308594 287.273438 363.980469 278.949219 363.980469 268.703125 C 363.980469 260.875 368.820312 254.175781 375.675781 251.445312 L 368.886719 244.65625 L 366.117188 247.421875 L 363.765625 249.78125 L 359.175781 245.1875 C 358.929688 251.351562 355.632812 257.261719 349.90625 260.570312 C 341.019531 265.6875 329.652344 262.648438 324.527344 253.769531 C 319.398438 244.882812 322.433594 233.515625 331.320312 228.390625 C 338.992188 223.960938 348.507812 225.621094 354.269531 231.867188 L 405.390625 180.738281 L 407.75 178.378906 L 410.105469 180.738281 L 411.546875 182.175781 L 411.832031 182.460938 C 412.84375 181.515625 413.976562 180.664062 415.21875 179.945312 C 424.109375 174.820312 435.464844 177.867188 440.597656 186.746094 C 445.730469 195.632812 442.691406 207 433.804688 212.125 C 433.253906 212.445312 432.6875 212.734375 432.113281 212.992188 L 436.964844 217.847656 L 442.089844 212.726562 L 444.441406 215.082031 L 446.566406 217.199219 L 448.917969 219.554688 L 449.648438 220.28125 L 453.441406 224.074219 L 455.792969 226.429688 L 442.472656 239.75 C 443.683594 244.320312 443.152344 249.351562 440.597656 253.769531 Z M 324.527344 186.746094 C 329.652344 177.867188 341.019531 174.820312 349.90625 179.945312 C 358.785156 185.085938 361.824219 196.4375 356.707031 205.324219 C 351.566406 214.21875 340.214844 217.257812 331.320312 212.125 C 322.433594 207 319.398438 195.632812 324.527344 186.746094 Z M 382.566406 153.242188 C 392.820312 153.242188 401.144531 161.550781 401.144531 171.8125 C 401.144531 182.070312 392.820312 190.398438 382.566406 190.398438 C 372.308594 190.398438 363.980469 182.070312 363.980469 171.8125 C 363.980469 161.550781 372.308594 153.242188 382.566406 153.242188 Z M 382.566406 145.6875 C 341.382812 145.6875 307.996094 179.074219 307.996094 220.253906 C 307.996094 261.4375 341.382812 294.824219 382.566406 294.824219 C 423.742188 294.824219 457.132812 261.4375 457.132812 220.253906 C 457.132812 179.074219 423.742188 145.6875 382.566406 145.6875 " fill-opacity="1" fill-rule="nonzero"/></g><path fill="#ffffff" d="M 443.449219 231.191406 L 440.738281 233.90625 C 440.617188 234.027344 440.464844 234.082031 440.304688 234.082031 C 440.144531 234.082031 439.980469 234.019531 439.859375 233.894531 L 439.617188 233.648438 L 435.339844 229.382812 L 435.304688 229.34375 C 435.054688 229.097656 435.054688 228.707031 435.296875 228.460938 L 438.011719 225.753906 C 438.132812 225.632812 438.289062 225.570312 438.449219 225.570312 C 438.609375 225.570312 438.765625 225.632812 438.890625 225.757812 L 443.445312 230.308594 C 443.683594 230.554688 443.691406 230.949219 443.449219 231.191406 Z M 435.875 238.761719 L 433.160156 241.480469 C 433.042969 241.601562 432.886719 241.648438 432.730469 241.648438 C 432.570312 241.648438 432.40625 241.589844 432.285156 241.46875 L 427.726562 236.917969 C 427.484375 236.671875 427.484375 236.28125 427.722656 236.042969 L 430.4375 233.328125 C 430.558594 233.207031 430.714844 233.144531 430.875 233.144531 C 431.035156 233.144531 431.191406 233.207031 431.316406 233.332031 L 435.871094 237.882812 C 436.109375 238.128906 436.117188 238.523438 435.875 238.761719 Z M 428.300781 246.332031 L 425.585938 249.054688 C 425.46875 249.175781 425.308594 249.230469 425.160156 249.230469 C 425 249.230469 424.832031 249.164062 424.703125 249.046875 L 420.152344 244.488281 C 419.914062 244.246094 419.914062 243.859375 420.148438 243.617188 L 422.871094 240.902344 C 422.988281 240.78125 423.140625 240.71875 423.296875 240.71875 C 423.457031 240.71875 423.613281 240.785156 423.742188 240.90625 L 428.289062 245.460938 C 428.539062 245.707031 428.542969 246.09375 428.300781 246.332031 Z M 420.726562 253.90625 L 418.011719 256.628906 C 417.902344 256.742188 417.734375 256.804688 417.585938 256.804688 C 417.417969 256.804688 417.257812 256.738281 417.128906 256.617188 L 412.585938 252.0625 C 412.339844 251.820312 412.339844 251.425781 412.574219 251.191406 L 415.296875 248.476562 C 415.417969 248.351562 415.566406 248.292969 415.71875 248.292969 C 415.878906 248.292969 416.039062 248.359375 416.164062 248.480469 L 420.71875 253.035156 C 420.964844 253.273438 420.96875 253.675781 420.726562 253.90625 Z M 413.160156 261.488281 L 410.4375 264.195312 C 410.316406 264.320312 410.167969 264.378906 410.015625 264.378906 C 409.847656 264.378906 409.6875 264.320312 409.5625 264.191406 L 405.011719 259.636719 C 404.761719 259.386719 404.761719 259.003906 405.007812 258.765625 L 407.722656 256.042969 C 407.832031 255.929688 407.992188 255.871094 408.144531 255.871094 C 408.304688 255.871094 408.464844 255.933594 408.59375 256.058594 L 413.140625 260.609375 C 413.390625 260.851562 413.394531 261.25 413.160156 261.488281 Z M 405.585938 269.058594 L 402.863281 271.78125 C 402.75 271.890625 402.59375 271.953125 402.433594 271.953125 C 402.273438 271.953125 402.113281 271.890625 401.988281 271.765625 L 397.4375 267.214844 C 397.1875 266.972656 397.1875 266.578125 397.433594 266.339844 L 400.148438 263.617188 C 400.214844 263.550781 400.300781 263.503906 400.394531 263.480469 C 400.457031 263.453125 400.519531 263.445312 400.570312 263.445312 C 400.730469 263.445312 400.890625 263.507812 401.019531 263.632812 L 405.566406 268.183594 C 405.816406 268.425781 405.820312 268.824219 405.585938 269.058594 Z M 394.535156 261.089844 L 383.589844 250.148438 L 373.085938 239.644531 C 372.011719 238.566406 372.011719 236.824219 373.085938 235.746094 L 378.972656 229.855469 L 392.167969 216.667969 L 406.894531 201.941406 L 407.421875 201.417969 C 407.957031 200.875 408.671875 200.605469 409.375 200.605469 C 410.078125 200.605469 410.785156 200.875 411.324219 201.417969 L 424.527344 214.621094 L 424.535156 214.621094 L 432.761719 222.855469 C 433.84375 223.9375 433.84375 225.6875 432.761719 226.761719 L 398.433594 261.089844 C 397.894531 261.628906 397.1875 261.898438 396.484375 261.898438 C 395.777344 261.898438 395.074219 261.628906 394.535156 261.089844 Z M 369.988281 224.613281 C 369.742188 224.375 369.742188 223.980469 369.984375 223.742188 L 372.375 221.351562 L 372.699219 221.019531 C 372.808594 220.90625 372.96875 220.851562 373.125 220.851562 C 373.28125 220.851562 373.441406 220.910156 373.570312 221.039062 L 378.121094 225.585938 C 378.367188 225.835938 378.371094 226.226562 378.136719 226.464844 L 376.257812 228.335938 L 375.414062 229.179688 C 375.300781 229.292969 375.144531 229.355469 374.992188 229.355469 C 374.824219 229.355469 374.664062 229.292969 374.539062 229.167969 Z M 370.5625 234.039062 L 367.839844 236.757812 C 367.726562 236.871094 367.570312 236.929688 367.410156 236.929688 C 367.25 236.929688 367.089844 236.871094 366.964844 236.742188 L 362.414062 232.191406 C 362.167969 231.949219 362.167969 231.554688 362.398438 231.316406 L 365.125 228.59375 C 365.242188 228.484375 365.390625 228.425781 365.550781 228.425781 C 365.707031 228.425781 365.867188 228.484375 365.996094 228.613281 L 370.546875 233.160156 C 370.792969 233.402344 370.796875 233.800781 370.5625 234.039062 Z M 377.550781 216.167969 L 380.273438 213.453125 C 380.382812 213.332031 380.542969 213.269531 380.699219 213.269531 C 380.855469 213.269531 381.015625 213.335938 381.144531 213.457031 L 385.695312 218.011719 C 385.941406 218.25 385.945312 218.652344 385.703125 218.882812 L 382.988281 221.605469 C 382.878906 221.71875 382.71875 221.78125 382.566406 221.78125 C 382.398438 221.78125 382.234375 221.714844 382.113281 221.59375 L 377.5625 217.039062 C 377.316406 216.800781 377.316406 216.40625 377.550781 216.167969 Z M 385.125 208.59375 L 387.847656 205.878906 C 387.964844 205.757812 388.117188 205.695312 388.269531 205.695312 C 388.429688 205.695312 388.589844 205.761719 388.71875 205.882812 L 393.269531 210.441406 C 393.515625 210.679688 393.519531 211.074219 393.28125 211.308594 L 390.640625 213.949219 L 390.5625 214.03125 C 390.445312 214.152344 390.289062 214.207031 390.136719 214.207031 C 389.980469 214.207031 389.808594 214.140625 389.679688 214.011719 L 385.132812 209.46875 C 384.890625 209.222656 384.890625 208.835938 385.125 208.59375 Z M 392.699219 201.019531 L 395.414062 198.304688 C 395.539062 198.183594 395.691406 198.121094 395.851562 198.121094 C 396.011719 198.121094 396.171875 198.183594 396.292969 198.308594 L 400.847656 202.859375 C 401.082031 203.105469 401.09375 203.5 400.851562 203.742188 L 398.136719 206.457031 C 398.019531 206.578125 397.859375 206.628906 397.707031 206.628906 C 397.546875 206.628906 397.382812 206.566406 397.257812 206.445312 L 392.707031 201.894531 C 392.464844 201.648438 392.464844 201.257812 392.699219 201.019531 Z M 400.273438 193.441406 L 402.988281 190.730469 C 403.113281 190.609375 403.265625 190.546875 403.425781 190.546875 C 403.585938 190.546875 403.746094 190.609375 403.867188 190.734375 L 406.183594 193.050781 L 408.421875 195.285156 C 408.660156 195.535156 408.671875 195.925781 408.425781 196.167969 L 406.101562 198.496094 L 405.714844 198.882812 C 405.59375 199.003906 405.441406 199.058594 405.28125 199.058594 C 405.121094 199.058594 404.957031 199 404.835938 198.871094 L 400.28125 194.320312 C 400.042969 194.074219 400.03125 193.683594 400.273438 193.441406 Z M 449.648438 224.992188 L 448.316406 226.332031 C 448.191406 226.449219 448.039062 226.507812 447.878906 226.507812 C 447.71875 226.507812 447.554688 226.449219 447.433594 226.320312 L 442.878906 221.769531 C 442.628906 221.523438 442.640625 221.132812 442.871094 220.890625 L 444.210938 219.554688 L 442.089844 217.433594 L 438.917969 220.605469 C 438.382812 221.148438 437.675781 221.417969 436.964844 221.417969 C 436.261719 221.417969 435.554688 221.148438 435.015625 220.605469 L 413.570312 199.164062 C 412.496094 198.085938 412.496094 196.339844 413.570312 195.269531 L 416.746094 192.089844 L 414.625 189.96875 L 413.289062 191.308594 C 413.171875 191.421875 413.015625 191.484375 412.855469 191.484375 C 412.695312 191.484375 412.53125 191.421875 412.410156 191.296875 L 408.222656 187.109375 L 407.855469 186.746094 C 407.617188 186.5 407.617188 186.109375 407.847656 185.867188 L 409.1875 184.539062 L 407.75 183.09375 L 380.660156 210.1875 L 372.488281 218.34375 L 354.769531 236.070312 L 356.210938 237.507812 L 357.546875 236.175781 C 357.667969 236.058594 357.820312 236 357.980469 236 C 358.140625 236 358.300781 236.058594 358.414062 236.1875 L 362.972656 240.730469 C 363.21875 240.976562 363.222656 241.375 362.988281 241.609375 L 361.648438 242.949219 L 363.765625 245.070312 L 366.9375 241.894531 C 367.476562 241.359375 368.183594 241.089844 368.886719 241.089844 C 369.59375 241.089844 370.304688 241.359375 370.84375 241.894531 L 379.347656 250.398438 L 392.289062 263.34375 C 393.363281 264.417969 393.363281 266.164062 392.289062 267.242188 L 389.109375 270.417969 L 391.234375 272.53125 L 392.566406 271.199219 C 392.6875 271.082031 392.84375 271.023438 393.003906 271.023438 C 393.164062 271.023438 393.324219 271.082031 393.4375 271.210938 L 397.992188 275.753906 C 398.242188 276 398.25 276.398438 398.007812 276.632812 L 396.671875 277.972656 L 398.109375 279.410156 L 416.347656 261.167969 L 441.207031 236.3125 L 451.085938 226.429688 L 449.648438 224.992188 " fill-opacity="1" fill-rule="nonzero"/></svg>